<svg xmlns="http://www.w3.org/2000/svg" viewBox="0 0 18.67 30.66"><defs><style>.cls-1{fill:#6b7e99;}</style></defs><g id="Layer_2" data-name="Layer 2"><g id="Layer_1-2" data-name="Layer 1"><path class="cls-1" d="M14.2.49A1.63,1.63,0,0,1,15.4,0a1.59,1.59,0,0,1,1.19.49L18.14,2a1.79,1.79,0,0,1,.53,1.19,1.53,1.53,0,0,1-.46,1.2L7.31,15.33l10.9,10.9a1.5,1.5,0,0,1,.46,1.19,1.8,1.8,0,0,1-.53,1.2l-1.55,1.54a1.6,1.6,0,0,1-1.19.5,1.64,1.64,0,0,1-1.2-.5L.56,16.52A1.52,1.52,0,0,1,0,15.33a1.56,1.56,0,0,1,.56-1.2Z"/></g></g></svg>