<svg xmlns="http://www.w3.org/2000/svg" viewBox="0 0 31.5 27.56"><defs><style>.cls-1{fill:#6b7e99;}</style></defs><g id="Layer_2" data-name="Layer 2"><g id="Layer_1-2" data-name="Layer 1"><path class="cls-1" d="M1.13,5.06a1.09,1.09,0,0,1-.81-.31A1.1,1.1,0,0,1,0,3.94V1.13A1.09,1.09,0,0,1,1.13,0H30.38A1.09,1.09,0,0,1,31.5,1.13V3.94a1.1,1.1,0,0,1-.32.81,1.09,1.09,0,0,1-.8.31Zm0,11.25A1.09,1.09,0,0,1,.32,16,1.1,1.1,0,0,1,0,15.19V12.38a1.09,1.09,0,0,1,1.13-1.13H30.38a1.09,1.09,0,0,1,1.12,1.13v2.81a1.1,1.1,0,0,1-.32.81,1.09,1.09,0,0,1-.8.31Zm0,11.25a1.09,1.09,0,0,1-.81-.31A1.1,1.1,0,0,1,0,26.44V23.63A1.09,1.09,0,0,1,1.13,22.5H30.38a1.09,1.09,0,0,1,1.12,1.13v2.81a1.1,1.1,0,0,1-.32.81,1.09,1.09,0,0,1-.8.31Z"/></g></g></svg>