<svg xmlns="http://www.w3.org/2000/svg" viewBox="0 0 94.92 51.78"><defs><style>.cls-1{fill:#fff;}.cls-2{fill:#ffb600;}</style></defs><g id="Layer_2" data-name="Layer 2"><g id="Layer_1-2" data-name="Layer 1"><path class="cls-1" d="M4.39,4.17c.48-2.77,0-3.78,0-3.78A4.87,4.87,0,0,1,6.71,0C10.09,0,10.49,1.27,10,4.34l-4.3,24.4c-.44,2.59.31,3.87,1.89,3.87,1.75,0,3.73-1.45,4.87-3.82.57,0,1,.35.83,1.14-.44,2.32-3.86,6.49-8.12,6.49-3,0-5.13-2-5.13-5.48a25.32,25.32,0,0,1,.4-4.17Z"/><path class="cls-1" d="M29.05,28.74c-.48,2.64.31,3.87,1.89,3.87s3.47-1.45,4.61-3.82c.57,0,1,.35.83,1.14-.44,2.32-3.6,6.49-7.86,6.49-2.89,0-4.91-1.79-5.13-5-1.8,3.25-4.21,5-6.71,5-3.6,0-6.45-2.41-6.45-7.54,0-9.79,5.7-14.4,10.83-14.4a5.76,5.76,0,0,1,4.74,2.15c.71-1.58,1.8-2.15,3.95-2.15a4.41,4.41,0,0,1,2.2.44,8.69,8.69,0,0,0-1,3.16Zm-4.34-7.11.39-2.06a3.16,3.16,0,0,0-2.89-2.1c-3,0-6.37,4.43-6.37,11.49,0,2.46,1,3.65,2.59,3.65C21.55,32.61,23.87,26,24.71,21.63Z"/><path class="cls-1" d="M51.65,32.74a33.16,33.16,0,0,0,7.15-4,.79.79,0,0,1,.84,1c-.09.44-.57.92-1.45,1.58a47.86,47.86,0,0,1-7,4l-.08.53c-1.72,10.18-5.8,15.84-12.29,15.84-3,0-4.92-1.88-4.92-4.6s1.54-5,3.69-6.81a36,36,0,0,1,8-5l.92-5.66a24.34,24.34,0,0,1-1.8,2.94c-1.84,2.51-3.77,3.73-6.19,3.73-2.94,0-4.78-2.06-4.78-5.09a29.11,29.11,0,0,1,.53-5.39l1.27-7.29c.48-2.76,0-3.77,0-3.77a4.79,4.79,0,0,1,2.29-.4c3.37,0,3.77,1.27,3.24,4.35L39.41,29c-.44,2.55.17,3.65,1.45,3.65,1,0,2.1-1.19,3.24-2.94a32.9,32.9,0,0,0,4.35-11c.52-2.76,0-3.77,0-3.77a4.77,4.77,0,0,1,2.28-.4c3.38,0,3.78,1.27,3.25,4.35Zm-6.49,5.44a26.05,26.05,0,0,0-6.19,4c-1.71,1.66-2.59,3.16-2.59,4.69a1.84,1.84,0,0,0,2,2C41.51,48.89,43.88,45.2,45.16,38.18Z"/><path class="cls-2" d="M67.38,29.64a10.21,10.21,0,0,1-.1,1.39,4.36,4.36,0,0,0,2.65-1.72c.28,0,.44.22.4.55-.14.77-1.52,2-3.27,2.18a5.72,5.72,0,0,1-5.75,4.38,3.83,3.83,0,0,1-4-4.19c0-4,2.33-6.78,6.08-6.78C65.92,25.45,67.38,27.14,67.38,29.64Zm-2.83-1.42c-.11-1.1-.61-1.69-1.42-1.69-1.1,0-2.24,1.12-2.85,4.39a15.93,15.93,0,0,0-.2,2.26c0,1.38.52,2.15,1.45,2.15,1.18,0,2.17-1.25,2.74-3.89a2.07,2.07,0,0,1-.83-1.73A1.4,1.4,0,0,1,64.55,28.22Z"/><path class="cls-2" d="M75,32.93a10.34,10.34,0,0,1-1,1.63,3.78,3.78,0,0,1-3.1,1.86,2.32,2.32,0,0,1-2.39-2.54,14.66,14.66,0,0,1,.27-2.7l.63-3.64a3.77,3.77,0,0,0,0-1.89,2.38,2.38,0,0,1,1.14-.2c1.69,0,1.89.64,1.63,2.18l-.88,5.06c-.22,1.25.09,1.82.72,1.82s1.06-.59,1.63-1.47a16.42,16.42,0,0,0,2.21-5.72,3.34,3.34,0,0,0,0-1.67,2.41,2.41,0,0,1,1.15-.2c1.69,0,1.88.64,1.62,2.18l-.86,4.95c-.22,1.32.16,1.93.95,1.93a3,3,0,0,0,2.3-1.9c.29,0,.48.17.42.57a4.45,4.45,0,0,1-3.93,3.24,2.47,2.47,0,0,1-2.57-2.74A7.26,7.26,0,0,1,75,32.93Z"/><path class="cls-2" d="M81.47,25.45l.22-1.18a3.48,3.48,0,0,0,0-1.89,2.38,2.38,0,0,1,1.14-.2c1.69,0,1.91.64,1.63,2.18l-.2,1.09h2.17a.74.74,0,0,1,.16.46c0,.38-.27.64-.75.64H84.08l-1,6c-.22,1.21.22,1.93,1.25,1.93a3.16,3.16,0,0,0,2.63-1.9c.29,0,.49.19.4.57a4.78,4.78,0,0,1-4.19,3.24,2.79,2.79,0,0,1-2.9-2.89,13.07,13.07,0,0,1,.24-2.35l.81-4.63H79.85a.74.74,0,0,1-.16-.46c0-.37.27-.64.75-.64Z"/><path class="cls-2" d="M91.83,30.3C93.43,31.14,94,32,94,33.2c0,1.73-1.47,3.22-4.65,3.22-2.81,0-4-1.44-4-2.59a1.33,1.33,0,0,1,1.44-1.31,1.53,1.53,0,0,1,1.06.31,1.64,1.64,0,0,0-.11.63,1.7,1.7,0,0,0,1.82,1.87c1.25,0,1.84-.66,1.84-1.39,0-.52-.28-1-1.07-1.38l-2.15-1.14a2.94,2.94,0,0,1-1.91-2.74c0-1.78,1.53-3.23,4.65-3.23,2.72,0,4,1.45,4,2.59a1.34,1.34,0,0,1-1.45,1.32,1.52,1.52,0,0,1-1-.31,1.64,1.64,0,0,0,.11-.63,1.75,1.75,0,0,0-1.86-1.87c-1.21,0-1.8.61-1.8,1.38s.35,1,1.07,1.38Z"/></g></g></svg>