<svg xmlns="http://www.w3.org/2000/svg" viewBox="0 0 440 520.68"><defs><style>.cls-1,.cls-2,.cls-4{fill:#fff;}.cls-2{font-size:12px;letter-spacing:0.02em;}.cls-2,.cls-4{font-family:Exo2-RegularExpanded, "Exo 2";}.cls-3{letter-spacing:0.02em;}.cls-4{font-size:11.39px;letter-spacing:0.02em;}.cls-5{letter-spacing:0.02em;}.cls-6{letter-spacing:0.02em;}.cls-7{letter-spacing:0.02em;}.cls-8{letter-spacing:0.01em;}</style></defs><g id="Layer_2" data-name="Layer 2"><g id="Layer_1-2" data-name="Layer 1"><path class="cls-1" d="M145.53,444.2c2.54.16,5.08.5,7.61.42,2.13-.07,2.74.59,2.74,2.72s-.68,2.74-2.67,2.53a42.75,42.75,0,0,0-4.29,0l3.39,8.06c-.16.26-.2.45-.31.51-3.22,1.85-3.2,1.85-1.76,5.19,2.86,6.64,5.69,13.29,8.59,19.91a21.17,21.17,0,0,0,1.83,2.85l0-.07c.79,2,1.44,4.11,2.38,6.06,2.74,5.69,5.59,11.32,8.4,17a72.1,72.1,0,0,0,5.39,9.49l.56-5.25c2.67,0,5.27-.06,7.86.06.41,0,1.06.79,1.13,1.28a28.93,28.93,0,0,1,.06,4h-8.72l.05.76h84.56l0-.66h-8.63v-5.28h9.06c.14,1.73.28,3.35.41,5l.46.17a15.22,15.22,0,0,0,1-1.52c3.26-6.55,6.6-13.07,9.72-19.69,4.11-8.69,8.07-17.45,12-26.2,1.29-2.83,2.32-5.79,3.7-8.58,1-1.95.59-3.15-1.3-4-.34-.16-.64-.38-1.15-.69,1.09-2.64,2.15-5.23,3.41-8.27-1.94,0-3.59,0-5.23,0-2.23.08-1.61-1.55-1.68-2.73s-.25-2.54,1.74-2.46a58.66,58.66,0,0,0,7.14-.05,3.33,3.33,0,0,0,2.36-1.52c2.69-6.27,5.21-12.62,7.9-19.22-4.3,0-8.43-.1-12.56,0-1.89.06-2.35-.61-2.32-2.38.1-5.06,0-10.12,0-15.6H267.07c-3.17,0-3.17,0-3.17-3.08q0-28.37,0-56.73c0-3.23,0-3.23-3.27-3.23H235.1c0,2.84.08,5.37,0,7.88a6.94,6.94,0,0,1-1,2.22,3.64,3.64,0,0,0-.58,1.34c-.05,2.91,0,5.83,0,8.93,2.6-.21,2.58,1.38,2.56,3.21-.08,6.07,0,12.15,0,18.22V387a11.59,11.59,0,0,1-2.09.17c-.78-.1-2.09-.23-2.2-.62a6.36,6.36,0,0,1,.35-2.74c.1-.41.55-.78.56-1.17,0-5.13,0-10.27,0-15.54-2.44.11-2.6-1.29-2.6-3.12q.08-30.21,0-60.41c0-2.9.38-3.16,3.4-2.2,0,1.78.1,3.62,0,5.45s.2,2.9,2.4,2.66v13.89l-2.36.49c0,4.81,0,9.63,0,14.46,0,1.73,1.54,1.2,2.47,1.2,8.53.05,17.07,0,25.6,0h5.65v62.95c3.59,0,7.7,1.2,10.28-.27,4.3-2.45,8.43-.6,12.52-1.35,1.53-.28,2,.58,1.95,2-.06,5.68,0,11.36,0,17.49,2.94,0,5.9-.05,8.86,0,1.31,0,3-.64,3.48,1.54.06.3,1.23.47,1.88.47,4.31.05,8.61,0,12.92,0a2.74,2.74,0,0,0,3-2.05c1.66-4.69,3.53-9.3,5.52-14.44-1.66,0-3-.05-4.32,0-1.67.08-1.69-1-1.55-2.14s-.8-2.84,1.42-3a2.48,2.48,0,0,1,.47,0c4,.68,6.87-.25,7.43-4.89,0-.38,1.31-1,1.8-.87,2.14.68,3-.17,3.64-2.15,1.19-3.86,2.44-7.71,3.94-11.46.87-2.15.56-3.45-1.59-4.29a6.66,6.66,0,0,1-1.07-.65l2.6-8.15c-2,0-3.71,0-5.38,0-2.23.05-1.55-1.6-1.65-2.77s-.08-2.41,1.7-2.24a9,9,0,0,0,1.16,0c1.69,0,3.66.53,5-.17s1.69-2.61,2.57-4.12a2.79,2.79,0,0,1,.71.11c2.22.81,3.29,0,3.86-2.27,1-3.93,2.12-7.83,3.46-11.65.74-2.1.44-3.33-1.72-4a9.68,9.68,0,0,1-1.23-.63l2.88-9.76c-1.9,0-3.56-.08-5.21,0-2.11.12-1.86-1.29-1.86-2.61s-.32-2.71,1.83-2.6a53.38,53.38,0,0,0,6.45,0c.66,0,1.71-.63,1.85-1.16,2.18-8.16,4.25-16.34,6.33-24.52,0-.13-.08-.29-.21-.71h-7c-5.14,0-5.13,0-5.14-5.25,0-3.46,0-6.92,0-10.38a3.44,3.44,0,0,0-.29-.76H288.87c-3.13,0-3.14,0-3.14-3.17V259.65H283c-8.45,0-16.91,0-25.37,0-1.67,0-2.36-.41-2.25-2.19.14-2.29,0-4.59,0-7.1h-22V254c0,3.84-.08,7.69,0,11.53.05,1.57-.95,3.6,1.46,4.51.24.09.21,1,.21,1.52,0,2.77,0,5.54,0,8.31,0,1.27.57,2.83-1.39,3.41-.23.07-.3,1-.31,1.46,0,2,0,4,0,6.26l-3.51.19c0-3.44,0-6.71,0-10,0-10.76.1-21.52.08-32.28,0-1.59.48-2.14,2.11-2.13q12.33.09,24.67,0c1.65,0,2.26.57,2,2.14a2.36,2.36,0,0,0,0,.46c.11,2.2-.6,5.25.56,6.35s4.2.45,6.41.46c6.52,0,13.05,0,20,0V247.9c0-3,.12-3.05,3.44-2.4v33.87h18.26l.45-2.53h7.5c1.92,0,3.85.09,5.76,0s3.42.05,3.16,2.71h11.88c4.46,0,8.92.12,13.38,0,2.11-.08,2.61.67,2.54,2.63-.14,3.92,0,7.85-.08,11.76,0,1.66.54,2.18,2.13,2.09,1.84-.11,3.69-.07,5.53,0,1.35.05,3-.57,3.5,1.58.05.22.79.4,1.21.4,5.31,0,10.61.05,15.91-.05a2.11,2.11,0,0,0,1.6-1.2c1.05-4.39,2-8.83,3-13.66-2.2,0-4.16-.08-6.12,0s-1.82-1.2-1.74-2.44-.58-2.83,1.65-2.77c1.38,0,2.77-.08,4.15,0,1.86.13,3.56.12,3.85-2.34a5.54,5.54,0,0,0,2.15.22c.78-.29,1.89-.85,2-1.49,1.16-4.76,2.16-9.55,3.05-14.37.11-.59-.59-1.49-1.15-2a8.6,8.6,0,0,0-2.25-1.07c.75-3.6,1.5-7.17,2.34-11.22-1.88,0-3.6-.09-5.32,0-2.25.15-1.9-1.36-2-2.74s.07-2.62,2-2.43a14.61,14.61,0,0,0,3.68,0,15.51,15.51,0,0,0,2.86-1.17,2.94,2.94,0,0,1,1.26-.32c2.22.24,3.07-.73,3.31-2.95.41-3.71,1.2-7.37,1.76-11.07s.53-3.64-3.21-5c.54-3.46,1.08-7,1.71-11a29.78,29.78,0,0,1-3,0c-1.6-.18-3.6.85-4.61-1.43-.09-.21-.86-.16-1.32-.16l-55.81,0a5.57,5.57,0,0,0-.85.16c.26,3-1.95,2.5-3.81,2.5H316.63l-.37-2.47H289.2v4.34c0,7.15,0,14.3,0,21.45,0,1.21-.08,2.08-1.68,2.07s-1.81-.69-1.81-2q0-29.28,0-58.57a8.52,8.52,0,0,1,.21-1.27h3.19v30.27c1,.06,1.76.14,2.5.14h98.93c2.38,0,4.76-.06,7.15-.08,1.09,0,2.19.15,2.27-1.52,0-.25,1.24-.63,1.9-.61,1.78.07,2.4-.78,2.57-2.44.44-4.35.86-8.7,1.57-13,.32-1.92-.28-2.8-2-3.05-1.51-.22-1.83-.87-1.57-2.34.48-2.8.66-5.65,1.08-8.46.25-1.66.19-3.32,1.68-4.77.84-.81.61-2.75.8-4.19.48-3.57.87-7.16,1.4-10.73.25-1.71-.29-2.36-2.07-2.31-3.38.1-6.77-.1-10.14.08-2.11.11-2.61-.66-2.54-2.63.14-4,0-8,0-12v-2.54H379.87c-1.69,0-3.73-.61-5,.12-5,2.84-10.25.71-15.33,1.31-.83.09-1.75-.72-2.64-1.07a4.43,4.43,0,0,0-1.49-.38c-6.84,0-13.68,0-20.53,0-.62,0-1.23.6-1.88.85a6.57,6.57,0,0,1-2.06.61c-3.76.06-7.53.06-11.3,0-1.28,0-2.8.53-3.54-1.26-.09-.22-.84-.24-1.28-.24q-12.35,0-24.68,0a4.86,4.86,0,0,0-.93.25V136q0,12.57,0,25.14c0,1.17.41,2.51-1.64,2.53s-1.83-1.12-1.83-2.42c0-9.61.07-19.22,0-28.82,0-2.13.75-2.54,2.68-2.54,12.76.05,25.52,0,38.28,0h3c0-2,0-3.78,0-5.52,0-1.14-.26-2.36,1.6-2.38s1.75,1.25,1.74,2.5.08,2.31,0,3.46c-.16,1.66.56,2.08,2.13,2.06q11.86-.13,23.75-.11c11.68,0,23.36.09,35,0,1.86,0,2.37.62,2.32,2.39-.1,4.31,0,8.61-.06,12.92,0,1.52.52,2,2,2,3-.09,6-.09,9,0,.72,0,1.39.75,2.11,1.09a5.92,5.92,0,0,0,2.2.87c5.53.07,11.07,0,16.6,0,1.82,0,2.57-.71,2.66-2.58.18-3.82.59-7.62.92-11.75-1.74,0-3.26-.11-4.77,0-2,.19-2.9-.47-2.58-2.55a18,18,0,0,0,0-2.35h7.52c.16-2.53.38-4.79.43-7,0-1.41.25-2.35,2-2.32,1.57,0,2.35-.76,2.39-2.53.11-4.53.39-9,.7-13.57.2-2.91-2.17-2.14-3.54-2.66V89.41a18.31,18.31,0,0,0,2.17-.13c1.38-.27,2.21-.8,2.23-2.55,0-4.57.31-9.15.58-13.73a1.91,1.91,0,0,0-1.61-2.28,19,19,0,0,1-3.8-1.64,2.09,2.09,0,0,1-.63-1.55c-.08-1.77,0-3.54,0-5.3,0-3.27.27-3.73,3.59-4.23,2-.31,3-1.13,2.71-3.27a41.7,41.7,0,0,1-.73-6.17,46.59,46.59,0,0,1,.72-6.19c.29-2-.43-3.11-2.61-3.31-.55,0-1.32-1-1.44-1.68a24.3,24.3,0,0,1-.07-4.15c-1.63,0-3-.11-4.34,0-2.18.22-2.06-1.15-2.07-2.61s0-2.87,2.11-2.58a4,4,0,0,0,.69,0c5.46-.12,5,1.05,5.06-5,0-1.85,0-3.69,0-5.54,0-1.34-.57-1.93-1.95-1.92q-16.61,0-33.19,0c-1.35,0-2,.45-1.91,1.88.08,1.76-.06,3.54,0,5.3.1,2-1.29,1.75-2.48,1.68s-2.82.65-2.75-1.62c.06-1.83,0-3.67,0-5.69l-6.37-1.13a13.07,13.07,0,0,1,0-1.56c.28-1.9-.43-2.68-2.43-2.94-5.83-.75-11.63-1.7-17.43-2.67-1.85-.31-3,0-3.63,2-.25.8-1.4,1.31-2.59,2.33,0,1.06-.07,2.82,0,4.57s-1.15,1.72-2.29,1.63-2.86.66-2.8-1.6c0-.54,0-1.08,0-1.61,0-4.52,0-4.52-4.41-5.29-.08-.11-.23-.23-.23-.36-.18-3.67-.18-3.65-3.92-4-3-.27-5.93-.79-8.9-.81-2.79,0-5.46-.74-8.2-1-1.37-.13-2.23.38-2.35,1.52-.23,2.23-1.33,2.64-3.25,2.1a7.47,7.47,0,0,0-1.8,0v2.43q0,46.47,0,92.93c0,2.13.56,3,2.69,2.7a32.43,32.43,0,0,1,3.69,0c3.14,0,3.19,0,3.11,3.16,0,1,.63,2.41-1.22,2.73s-2.21-.81-2.26-2.51h-2.58q-14.19,0-28.37,0c-1.38,0-2.43-.07-2.31-1.92.12-1.68,1.28-1.46,2.32-1.46,6.3,0,12.61-.1,18.91,0,2.26.06,2.79-.67,2.79-2.85q-.11-46.47,0-92.94c0-2.14-.52-3.15-2.75-3-1.25.07-2-.4-1.81-1.93.2-1.71-.56-2.57-2.49-2.67-3.47-.19-6.93-.92-10.41-1-2.08,0-4.08-.46-6.12-.63-3.89-.32-3.89-.33-5,3.58-.78-.08-1.6-.18-2.42-.23s-1.5,0-2.55,0c0,1.48-.07,2.92,0,4.35.1,1.58,0,3-2,2.92-.42,4.17-.41,4-4.69,3.72-4.59-.26-9.21-.1-13.82-.11-5.84,0-11.69.11-17.52-.05-2.41-.07-3.12.79-2.95,3.06s0,4.3,0,6.45c0,1.32-.38,2.8,1.57,3.38.35.1.43,1.5.43,2.31q0,34.12,0,68.26v7.2c1,0,1.9.14,2.79.14q16.83,0,33.67,0c1,0,2.24-.33,2.35,1.39.1,1.53-.51,2-2,2-6-.06-12,0-18,0-6.15,0-12.3,0-18.45,0-1.5,0-3.19.57-4.35-1.18-.23-.35-1.3-.19-2-.19-4.53,0-9.05,0-13.75,0,0-2.71-1.7-2.62-3.54-2.55-2.54.08-5.08-.1-7.61.05-1.95.12-2.46-.58-2.45-2.48.07-15.84,0-31.67,0-47.51,0-2.69-.06-5.38,0-8.07,0-1.42-.28-2.08-1.88-2.08-2.65,0-2.66-.11-2.06-3.39h15.07c.69,0,1.39.09,2.07,0,1.3-.1,2,.24,2,1.75s-.92,1.65-2.1,1.65c-2.61,0-5.23.06-7.84,0-1.09,0-1.73.22-1.72,1.51,0,5.28,0,10.55,0,15.83,0,1.45.95,1.55,2,1.55,3.2,0,6.4,0,9.6.2H218.27V80.26h11.45v.4H218.07c0,2.71-.06,5.26.06,7.8,0,.42.82,1.06,1.33,1.13a29.23,29.23,0,0,0,3.91,0l-.68-1.47h3.87L226,89.43h5.46v.37c-3.67,0-7.34.08-11,0-1.8-.06-2.47.49-2.4,2.35.12,3.28,0,6.57,0,10h26.16V91.21c0-3-.06-5.92,0-8.87,0-1.45-.55-1.85-1.91-1.82q-4.94.09-9.88-.12c3.19,0,6.37-.06,9.55,0,1.69,0,2.38-.55,2.23-2.29-.36-4.2-.33-4.19-4.76-4-1.21,0-2.42,0-3.63,0H232.4V74c3.35,0,6.7,0,10,0,1,0,1.79-.1,1.79-1.45,0-8.43,0-16.85,0-25.28a12.39,12.39,0,0,0-.18-1.4c-1.1,0-2.15-.05-3.2,0-1.32.08-2-.33-2-1.8s.75-1.78,2-1.73c3.66.12,3.27.26,3.36-3.34.15-5.82.39-11.63.56-17.44.06-2.15,0-4.29,0-6.78h36.32c.14-3.9.35-7.47.35-11,0-1.66.44-2.39,2.21-2.28,2.13.12,4.27,0,6.41,0,.3,0,.82.06.87-.06,1-2.37,2.81-1,4.25-.91,6.81.58,13.62,1.25,20.42,1.89.3,0,.81,0,.87.14,1.38,3.13,4.32,1.56,6.52,2.17A9.66,9.66,0,0,0,326,5c.61,0,1.18-.54,1.79-.78a3.68,3.68,0,0,1,1.52-.45c7.79.77,15.58,1.58,23.17,2.88A19.27,19.27,0,0,0,355.37,8c2.22.62,4.41,1.63,6.81.79.2-.07.54.13.68,0,3.44-2.63,6.91-.19,10.3.09a89.51,89.51,0,0,1,15.46,2.87,12.23,12.23,0,0,0,2.84,1.48c6.93,1.63,14,1.35,21,1.35h22.59c.75,0,1.51.1,2.74.18,0,5.19,0,10.23,0,15.27,0,2.29.25,4.58.41,6.87,0,.37.11,1,.26,1,2.2.38,1.29,2,1.31,3.23.05,5.29,0,10.58.06,15.88,0,.45.1,1.26-.05,1.31-3.35,1.19-1.59,4-2,6.13a9.73,9.73,0,0,0,0,2.53c.06.67.06,1.75.44,1.94,2.51,1.26,1.27,3.38,1.24,5.11-.09,5-.37,10-.58,15,0,.3,0,.82-.1.87-3,1.23-1.27,3.94-1.81,5.92a15.68,15.68,0,0,0-.21,3.44c0,.45-.12,1.2.1,1.32,2.36,1.28,1.14,3.39,1.12,5.09-.06,4.84-.35,9.67-.64,14.5,0,.56-.64,1.08-1,1.61-.23.35-.62.68-.67,1-.4,3.17-.85,6.34-1.06,9.53-.32,5-.41,10.05-.68,15.08-.16,3.08-.22,3-3.24,2.9-6.59-.14-13.19-.13-19.78-.24a2.09,2.09,0,0,0-2.45,2.09c-.54,4.57-1.24,9.13-1.66,13.72-.45,5-.66,10-1,15,0,.23-.13.53,0,.67,2.69,3.56,0,7.24.22,10.86a26.92,26.92,0,0,1-.83,6.38c-.31,1.65.47,3.72-2,4.68-.67.27-1,1.8-1.16,2.8q-.69,5.66-1.09,11.35a6.82,6.82,0,0,0,.7,2.24c.14.45.44.94.36,1.36-1.07,6.2-2.2,12.38-3.32,18.62-2.49.84-2.89,2-2.76,4.76a31.93,31.93,0,0,1-.93,6.52c-.24,1.36-.59,2.7-.86,4.06-.08.43-.18,1.24-.05,1.28,2,.76.87,2.08.64,3.23-1.07,5.26-1.92,10.59-3.34,15.76-.44,1.61-2.42,2.8-3.95,4.46,1.64,5.75-1.55,11.5-2.24,17.55-.22,1.91-1.47,1.78-2.84,1.75-5.75-.14-11.51-.19-17.27-.37-1.83-.05-2.75.56-3.22,2.42-2.16,8.64-4.87,17.16-6.54,25.88-.8,4.2-1.65,8.34-2.76,12.45-.17.61.46,1.44.89,2.65-1.75,5.73-3.66,12-5.58,18.34l-.39-.28c-.65.84-1.29,1.69-1.95,2.52-3,3.73-1.73,8.81-4.08,12.77-.27.46.38,1.47.76,2.72-2,5.66-4.13,11.89-6.29,18.11l-.44-.3c-.65.83-1.34,1.64-1.94,2.5-.76,1.06-1.45,2.17-2.15,3.28a1.66,1.66,0,0,0-.29.82c-.06,5.23-2.85,9.65-4.32,14.46-.24.8-.57,1.59-.88,2.37-2.11,5.44-.62,4-6.51,4.1q-6.56,0-13.12-.22c-1.9-.07-2.29,1.25-2.8,2.5-2.49,6.09-4.6,12.38-7.58,18.22-1.18,2.3-.93,4.56-1.73,6.72s-2,4.49-2.83,6.8c-.18.51.46,1.32,1.31,2.11l-28.44,60.79H175.65c-9.37-20.06-18.85-40.33-28.33-60.6l1-.31a10.86,10.86,0,0,0-.35-3.32c-1.78-3.93-3.48-7.83-2.49-12.3ZM327.68,6.08c-3.23-.35-6.19-.72-9.17-.93a5.79,5.79,0,0,0-2,.68c.64.37,1.27,1,1.91,1,1.84,0,2.68.51,2.67,2.65q-.1,47.61,0,95.22c0,1.92-.56,2.54-2.47,2.51-6.07-.09-12.14,0-18.21,0a10.18,10.18,0,0,0-2.07,0c-.42.09-.76.53-1.14.81.36.29.67.72,1.08.84a5.67,5.67,0,0,0,1.6,0h27.67c.89,0,1.77.08,2.63.13a3.48,3.48,0,0,0,.22.89c.31.48.67.93,1,1.39a4.83,4.83,0,0,0,.76-1.38,20.8,20.8,0,0,0,0-2.78c-2.34,0-4.48-.09-6.61,0s-2.8-.38-2.79-2.66q.12-47.37.06-94.75c0-.74.08-1.48.09-1.75C324.33,6.47,326.78,9.11,327.68,6.08ZM256.15,249.41c0,2.53.17,4.68,0,6.8-.23,2.27.73,2.66,2.74,2.64,8.15-.1,16.29,0,24.44,0,3.29,0,3.29,0,3.29,3.41,0,6,0,12,0,18,0,1.47.43,2,2,2,5.76-.08,11.53,0,17.29-.07.61,0,1.21-.55,1.81-.85-.65-.33-1.28-.93-1.93-.94-4.08-.09-8.15-.05-12.22-.05-5.1,0-5.1,0-5.1-5.12,0-9,.05-18,0-27a7.37,7.37,0,0,0-.8-2.29,8.23,8.23,0,0,0-.95,2.38,64.71,64.71,0,0,0,0,6.68c.06,1.49-.45,2-2,2q-12.33-.09-24.67,0c-1.69,0-2.1-.64-2-2.18.1-2.34,0-4.69,0-7H230.84c0,.6-.1,1.05-.1,1.49,0,6.31,0,12.61,0,18.91,0,.43.58.86.88,1.29.32-.5.9-1,.91-1.5.07-4.54.05-9.07.05-13.61,0-5,0-5,5-5Zm-9.78-144.84c1-7.74.41-74-.79-75.12-.05.81-.14,1.46-.14,2.12,0,2.92,0,5.84,0,8.76,0,3.09,0,3.08-3,3.17-.78,0-1.56.16-2.34.24v.72a15.6,15.6,0,0,0,2.54.15c2.05-.2,2.8.52,2.79,2.7q-.14,27,0,53.91c0,1.65-.39,2.3-2.18,2.28-8.06-.09-16.13-.07-24.19,0-1.79,0-2.25-.73-2.24-2.33q0-27,0-53.91c0-2,.67-2.79,2.68-2.66,1.82.12,3.65,0,5.48,0l0-.87h-9.77a23.46,23.46,0,0,1,.54,3.55q0,26.49,0,53v4.27Zm18.36,300.6c4.35,0,8.41,0,12.46,0,.4,0,.79-.5,1.19-.77-.42-.32-.82-.89-1.25-.91-2.69-.08-5.39-.16-8.07,0-2.06.12-2.58-.61-2.57-2.62.08-19.22.05-38.44.05-57.66,0-.88,0-1.77,0-2.65-.67-.08-1-.15-1.28-.16H236.91c-.31,0-.68-.09-.91,0s-.8.56-.78.82a1.2,1.2,0,0,0,.79.85,7.43,7.43,0,0,0,1.83.08c8.07,0,16.14.07,24.21,0,2.11,0,2.74.55,2.73,2.71-.09,19.06,0,38.13,0,57.19Zm21.85-258.48c0,4.84,0,9.68,0,14.52,0,.53.55,1,.85,1.57a8.55,8.55,0,0,0,.92-1.49,4.17,4.17,0,0,0,0-1.37c0-8.3.06-16.6-.05-24.89,0-2.07.63-2.6,2.63-2.58,7.84.11,15.67.07,23.51,0,.63,0,1.26-.63,1.88-1-.61-.28-1.22-.8-1.83-.8-8.69-.06-17.37,0-26.05-.07-1.55,0-2,.56-2,2C286.62,137.31,286.58,142,286.58,146.69Zm1.83,57.4v-15.2c0-4.45,0-8.91,0-13.36,0-.48-.49-.95-.75-1.43a9.41,9.41,0,0,0-1,1.44,3.07,3.07,0,0,0,0,1.14q0,27.52,0,55a6.93,6.93,0,0,0,.08,1.83,1.27,1.27,0,0,0,.85.81c.28,0,.73-.46.84-.8a6.07,6.07,0,0,0,0-1.6Q288.42,218,288.41,204.09Zm73.9.65c-9.06,0-18.12,0-27.18,0a6.27,6.27,0,0,0-2,.82c.67.31,1.33.87,2,.88q27.3.06,54.6,0c.66,0,1.33-.58,2-.89a6.19,6.19,0,0,0-2-.81C380.59,204.72,371.45,204.74,362.31,204.74Zm-11.07,75.57c-8.6,0-16.74,0-24.88.05-.72,0-1.42.64-2.13,1a6.55,6.55,0,0,0,2.08.81c6.61.06,13.22,0,19.84,0,3.37,0,3.37,0,3.37,3.33v13c4,0,7.68,0,11.35,0,.41,0,.82-.45,1.22-.69-.39-.34-.76-1-1.17-1-2.22-.11-4.45-.06-6.68-.07-3,0-3,0-3-3.09C351.23,289.31,351.24,285,351.24,280.31Zm42.22-130.67c4.66,0,9,0,13.37,0,.53,0,1.05-.52,1.57-.8-.52-.29-1-.81-1.58-.82-2.91-.08-5.84-.14-8.75,0-2,.09-2.86-.42-2.76-2.66.19-4.21,0-8.44.08-12.66,0-1.4-.26-2.08-1.89-2-6,.08-12,0-17.95.07-.61,0-1.21.54-1.81.83.64.32,1.28.92,1.93.93,5,.08,10,0,15,.05.89,0,1.78.11,2.82.18ZM230.74,321.16c0,5.85,0,11.36,0,16.87,0,.46.53.91.81,1.37.33-.48.89-.92,1-1.43a23.05,23.05,0,0,0,0-3.22V323.11l2.48-.46V310.27c-2.26.23-2.68-1-2.51-2.8a24.42,24.42,0,0,0,0-4.36c0-.48-.54-.91-.83-1.36-.33.42-.93.83-.94,1.25-.08,2.9,0,5.8,0,9,2.85-.68,2.78,1,2.7,2.78a28.37,28.37,0,0,0,0,3.45C233.59,320,233.39,321.48,230.74,321.16ZM244.91,108.8c.91.09,1.29.16,1.67.16h37.3a2.11,2.11,0,0,0,.91,0c.34-.17.84-.5.84-.76a1.2,1.2,0,0,0-.74-.87,7.43,7.43,0,0,0-1.83-.07H249.9a10.39,10.39,0,0,1-2.5-.22,9.18,9.18,0,0,1-1.83-.91ZM230.74,365.62c2.67.77,2.67.77,2.67,3.42v13.14a7.42,7.42,0,0,1-.1,1.83,14.36,14.36,0,0,1-.84,2l2.6.27V364.2c-2.63.6-2.52-1-2.49-2.7.06-2.38.06-4.77,0-7.15,0-.46-.53-.91-.82-1.36-.33.4-1,.79-1,1.2C230.71,358,230.74,361.85,230.74,365.62Zm87-157h14.67c-.63-1.47-1-3.45-1.55-3.48-4.32-.25-8.66-.15-13.12-.15ZM289.19,423.08c4.31,0,8.29,0,12.27,0,.55,0,1.08-.51,1.61-.78-.56-.33-1.12-.93-1.69-.95q-4.15-.17-8.3,0c-1.6.05-2.16-.51-2.12-2.13.1-3.92.06-7.84,0-11.76,0-.46-.54-.91-.84-1.36-.3.42-.87.83-.88,1.25C289.17,412.42,289.19,417.56,289.19,423.08Zm33.65-144.83H309v3.37h13.88ZM302.59,206.5c4.06,0,8.12,0,12.18,0,.54,0,1.08-.65,1.62-1a4.69,4.69,0,0,0-1.65-.7q-12-.08-23.9,0c-.54,0-1.08.47-1.62.72.55.34,1.1,1,1.65,1C294.78,206.54,298.68,206.5,302.59,206.5Zm42.45-74c3.45,0,6.9,0,10.35,0,.54,0,1.07-.53,1.61-.81-.56-.33-1.11-1-1.67-1q-10.23-.09-20.47,0c-.58,0-1.15.6-1.73.91.6.31,1.19.85,1.79.87C338.29,132.54,341.67,132.5,345,132.49Zm13.39-1.43v2.51h13.85l.56-.52c-.51-.66-1-1.88-1.52-1.9C367.07,131,362.8,131.06,358.43,131.06Zm-40.64.09-.13,2.44H331.9c0-.86-.08-1.59-.11-2.44Zm-84,209.78-.62-.7c-.67.54-1.88,1-1.91,1.61-.19,3.25-.09,6.52-.09,10l2.62-.2Zm56.77,63.83v-2.67c-3,0-5.9.12-8.79,0-2.24-.11-2.42.89-1.9,2.71ZM233.85,281.59c0-3.08-.08-5.89,0-8.7.07-1.95-.74-2.42-2.54-1.87v10.72Zm88.38,141.78c.8-.43,1.47-.56,1.6-.9,2.08-5.38,4.08-10.79,6.22-16.49C328.07,406.5,323.29,417.63,322.23,423.37Zm109-274,.7.38c.33-.43.92-.83,1-1.29q.64-6.16,1.09-12.34c0-.38-.42-.8-.65-1.2-.32.34-.89.66-.93,1C432,140.41,431.62,144.89,431.24,149.36Zm-49,149.07c.78-.1,1.6-.07,1.64-.22,1.18-5,2.29-10,3.41-15l-1.12-.27C384,287.71,384,293.12,382.27,298.43ZM436.63,60.06l-2.72.13c0,2.09.06,4,0,5.87-.08,2.23,1,2.4,2.73,1.68ZM395.51,15.44v7.73h2.39V15.44Zm-8.74,228.83h7.76c.47-1.71.38-2.78-1.76-2.64-1.88.12-3.77,0-5.87,0C386.85,242.52,386.81,243.32,386.77,244.27Zm39-110.67h7.52v-2.54c-2.08,0-4,.07-5.87,0S425.27,131.92,425.75,133.6ZM293.12,446.09h-7.7v2.46h7.7Zm49.25-81.37h-7.73V367h7.73Zm36-82.91H384c2.54,0,2.63-.14,1.85-2.63h-7.42ZM345.74,327c.12,1.11.19,1.84.27,2.56h7.56c.61-2-.1-2.71-2-2.58S347.94,327,345.74,327ZM282.93,2.81v7.82l2.39-.2V2.81ZM154.53,446.1h-7.82l.16,2.41h7.54ZM393.27,207.45h7.59c-.09-1-.16-1.69-.23-2.48-2,0-3.75.09-5.5,0C393.15,204.81,392.7,205.66,393.27,207.45ZM429.78,31.88h6.78V29.41h-6.78ZM403.31,181.16l.6,1.09c.34-.4.92-.78,1-1.22.49-3.49.91-7,1.28-10.49.05-.4-.35-.84-.54-1.27-.35.4-.95.75-1,1.18C404.14,173.87,403.76,177.29,403.31,181.16Zm32.93-85.63h.15c0-1.45.06-2.91,0-4.35,0-.39-.5-.75-.78-1.12-.31.34-.86.66-.89,1-.24,3-.41,5.94-.49,8.92,0,.4.6.82.92,1.23.28-.38.75-.74.8-1.14C436.09,98.58,436.14,97.05,436.24,95.53ZM357.84,10.4c0,2.16.06,4.06,0,6s.75,2.27,2.48,1.77V10.4Zm-28.2,391.85h-6.73c.07,1,.12,1.69.17,2.43h6.56Zm-68,115.09c-.08-1-.13-1.7-.19-2.45h-6.58v2.45Zm-83.22,0h6.44c.68-1.89.11-2.7-1.81-2.63-1.5.06-3,0-4.63,0ZM391.82,256.55l1.1.07q1.17-5.37,2.33-10.75l-.67-.38c-.38.45-1,.85-1.09,1.34C393,250.07,391.5,253.22,391.82,256.55Zm9.51-46.76-.66-.86c-.34.34-.9.64-1,1-.54,2.78-1,5.58-1.44,8.38-.05.37.41.82.64,1.23.32-.34.86-.63.94-1C400.36,215.78,400.8,213,401.33,209.79ZM354.2,331.14c-1.84.12-3,2.53-4.06,7.88a4.79,4.79,0,0,0,.35,1.76l.79-.09ZM293.54,450.28l-.5-.53c-.47.26-1.19.4-1.37.78-1,2.15-1.92,4.34-2.79,6.55-.1.26.28.71.43,1.08.35-.19.89-.29,1-.57C291.44,455.17,292.48,452.72,293.54,450.28ZM147,449.72l-.54.56c1,2.31,1.94,4.63,3,6.91.2.41.8.64,1.21.95.09-.51.38-1.1.22-1.51-.75-1.92-1.57-3.82-2.48-5.67C148.16,450.44,147.49,450.13,147,449.72Zm195.81-80.91-1-.49c-1.55,2-2,4.54-2.78,6.9-.14.42.27,1,.42,1.57l.68-.14ZM232.13,107.64a26.33,26.33,0,0,0,3,0,1.16,1.16,0,0,0,.76-.86,1.2,1.2,0,0,0-.78-.85c-1.89-.07-3.79-.07-5.69,0-.32,0-.63.49-1,.75.33.33.62.89,1,.95A17.61,17.61,0,0,0,232.13,107.64Zm-1.39,179a13.22,13.22,0,0,0,0,2.52c.09.45.63.82,1,1.23.28-.38.79-.75.81-1.15a42.54,42.54,0,0,0,0-5c0-.41-.63-.78-1-1.18-.28.37-.74.71-.8,1.11A16.29,16.29,0,0,0,230.74,286.68Zm9.63-179a11.54,11.54,0,0,0,2.28,0,6.37,6.37,0,0,0,1.61-.84c-.5-.32-1-.87-1.51-.92a30,30,0,0,0-4.55,0c-.46,0-.89.53-1.34.82a5.62,5.62,0,0,0,1.47.94A8.16,8.16,0,0,0,240.37,107.68Zm-7.81,209a14,14,0,0,0,0-2.51c-.08-.48-.56-.89-.86-1.33-.32.41-.9.8-.93,1.23a35,35,0,0,0,0,4.8c0,.45.55.87.85,1.3.33-.4.85-.76,1-1.22A10.72,10.72,0,0,0,232.56,316.63ZM433.11,125.89H433a21,21,0,0,0-.17,2.74c0,.4.47.78.72,1.16.29-.29.8-.56.82-.88.19-2.13.3-4.26.35-6.4,0-.29-.48-.6-.74-.89-.3.28-.81.54-.84.84C433.05,123.6,433.11,124.75,433.11,125.89Zm-100.95.54a11.65,11.65,0,0,0,0-2.29c-.09-.46-.58-.85-.88-1.27-.3.44-.81.85-.84,1.31a27.59,27.59,0,0,0,0,4.36c0,.44.57.84.88,1.26a4.28,4.28,0,0,0,.84-1.31A9.43,9.43,0,0,0,332.16,126.43Zm-1.94,274.05.62.57c.45-.41,1.13-.73,1.32-1.23a31.85,31.85,0,0,0,.94-3.64c-.48.08-1.28,0-1.39.26C331.12,397.75,330.7,399.13,330.22,400.48ZM394,16.22a5.32,5.32,0,0,0,0-1c-1.69-.42-3.38-.82-5.08-1.16-.1,0-.49.55-.43.66.19.34.51.78.84.84C390.83,15.85,392.31,16,394,16.22ZM288.53,2l-1.78.89c.49.36,1,1,1.47,1a17.62,17.62,0,0,0,3.16-.56ZM437.31,35.84a3.33,3.33,0,0,0,0-1.14,8.12,8.12,0,0,0-.78-1.41,5,5,0,0,0-.73,1.43,7.64,7.64,0,0,0,0,2.29,4.32,4.32,0,0,0,.65,1.26,7.3,7.3,0,0,0,.87-1.29A3.58,3.58,0,0,0,437.31,35.84Zm-80.92-25.4.26-.95c-1.06-.22-2.12-.48-3.19-.62-.18,0-.42.48-.63.74.82.32,1.63.69,2.48.94A2.93,2.93,0,0,0,356.39,10.44ZM343.18,363.28l.72.32c.44-.91.92-1.8,1.29-2.74.05-.13-.44-.48-.68-.72a23.81,23.81,0,0,0-1.3,2.07C343.06,362.5,343.18,362.92,343.18,363.28Z"/><path class="cls-1" d="M145.52,444.15c-.24.48-.49,1-1,1.85-.77-1.85-1.39-3.35-2-4.85-2.17-5.26-4.37-10.5-6.48-15.77a2.54,2.54,0,0,0-2.76-1.84c-3.69.08-7.38,0-11.07.07a8.17,8.17,0,0,0-2.3.82c-.23-.1-.9-.66-1.47-.57-2.22.35-3.29-.51-4-2.64-1.33-4.09-3-8.06-4.42-12.12-.56-1.64-.69-3.41-1.17-5.08a17.32,17.32,0,0,0-1.23-2.43c-.52-1.1-.89-2.27-1.5-3.31a12.19,12.19,0,0,0-1.71-1.9l-.5.37L97.59,378h.46a18.47,18.47,0,0,0,0-3.41c-.58-3-1-6.07-2.12-8.82-.73-1.73-1-4.26-3.63-4.82-.37-.07-.59-1.14-.78-1.78q-2.58-8.59-5.14-17.19l.58,0a15.26,15.26,0,0,0,0-3.45c-.92-3.78-1.73-7.53-2.3-11.41-.86-5.77-2.91-11.36-4.43-17-.82-3-1.68-6.08-2.34-9.15a2.18,2.18,0,0,0-2.57-2c-5.84.12-11.67.14-17.5.36-1.92.07-2.93-.3-3.23-2.43-.43-3-1.4-6-1.85-9-.41-2.75-.44-5.57-.67-8.8-1.24-.94-3.35-1.78-3.83-4.53-1-5.37-2.27-10.66-3.43-16-.08-.37-.27-1-.16-1.07,2.49-1.36.65-3.19.51-4.77-.28-3.17-.66-6.34-1.17-9.48-.15-1-.78-2.57-1.31-2.62-2.19-.2-1.69-1.79-1.89-3-1-5.67-1.93-11.35-2.89-17l.58,0a15.79,15.79,0,0,0,.46-3.38c-.25-3.56-.53-7.13-1.11-10.65-.21-1.28-1.31-2.42-2-3.63a4.91,4.91,0,0,1-.77-1.62c-.82-6.08-1.58-12.18-1.86-18.17a11.35,11.35,0,0,0,.79-3c0-1.68-.45-3.35-.6-5-.63-7.29-1.17-14.59-1.85-21.87-.3-3.14-.42-3.17-3.69-3.14-6.52.07-13,.15-19.56.3-1.52,0-2.21-.36-2.26-2q-.29-8-.8-16.06c-.2-3.2-.6-6.38-.91-9.57,0-.23-.08-.61-.18-.64-2.54-.59-1.42-2.68-1.54-4.08-.43-5.13-.63-10.27-.92-15.41,0-.31-.12-.79,0-.89,3-2,1.18-4.92,1.19-7.39,0-1.47,1-3.68-1.65-4.32-.15,0-.18-.7-.2-1.07Q.58,79.6.18,70.17l.58.18A14,14,0,0,0,2,67a26.32,26.32,0,0,0,0-5.75c-.1-.88-.9-1.68-1.34-2.54a3.62,3.62,0,0,1-.6-1.5c0-5.83,0-11.67,0-17.51,0-.31-.09-.81.05-.89C3.26,37,1.57,33.72,2,31.23a80,80,0,0,0,.47-13.77c-.06-2.44.78-2.91,3-2.9,11.3.06,22.59.06,33.88-.13a72,72,0,0,0,10-1.31c.56-.1,1-.85,1.52-1.25a3.5,3.5,0,0,1,1.37-.8q11-1.74,22.08-3.39A2.52,2.52,0,0,1,76,7.87a7.2,7.2,0,0,0,6.5.84c.72-.2,1.41-.5,2.14-.65,1-.22,2.25.12,2.33-1.54,0-.19.72-.44,1.13-.49Q99.5,4.85,111,3.7c.23,0,.55-.12.67,0,3.35,3.1,7,0,10.45.49,2.25-3.05,5.71-1.75,8.62-2.3,3.09-.58,6.26-.71,9.39-1L147,.09c.3,0,.78-.17.88,0,2.31,3,5.51.56,8.23,1.27,1.65.44,2.33.67,2.33,2.47,0,3.5.24,7,.4,10.83h12.7c7.15,0,14.29,0,21.44-.06,1.86,0,2.35.63,2.33,2.4-.07,8.34,0,16.67,0,25.2l5.51.26c.07,1.28,1.23,2.83-.9,3.34a19.55,19.55,0,0,1-4.16,0v3c0,19.44-.06,38.89,0,58.34,0,2.15-.61,2.72-2.72,2.7-12.29-.09-24.59,0-36.89,0-1.21,0-2.75.5-2.69-1.73s1.67-1.61,2.82-1.61c11,0,22,0,33,0h3V99.78q0-34.48,0-69c0-1.11-.56-2.57,1.42-2.82.26,0,.57-1,.58-1.56,0-3,0-6,0-9,0-1.26-.49-1.82-1.77-1.81l-32.26,0a12.8,12.8,0,0,0-1.81.34c-1.84.28-3.28.1-2.9-2.38.08-.49-.09-1.45-.28-1.48-2.87-.56-1.62-2.8-1.83-4.4a25.64,25.64,0,0,1,0-3,10,10,0,0,0-2.09,0c-2.19.57-3.67.2-4-2.42-.05-.41-1.07-1.06-1.59-1-4.42.37-8.83.9-13.24,1.34-2.13.21-4.29.19-6.38.57-.7.12-1.85,1.26-1.76,1.73.51,2.59-1,2.78-2.84,2.82A11.23,11.23,0,0,0,120,8v98.24c.78.06,1.58.15,2.38.16h18.45c2.93,0,3,.06,2.48,3.24H110.84c-.19.68-.17,1.35-.49,1.62a3.44,3.44,0,0,1-2,.92,1.9,1.9,0,0,1-1.27-1.36c-.09-5.29-.47-4.35,3.85-4.42,1.74,0,3.49,0,5.33,0V8.4a6.77,6.77,0,0,0-1.33-.05c-1.8.31-3.54.73-3.53-2.15,0-.47-1.31-1.43-1.93-1.36-4.54.46-9,1.17-13.58,1.7a37.42,37.42,0,0,1-5,.1c-2.13,0-3.1.92-2.85,3.06a5,5,0,0,1,0,.94c-1.63.53-3.72.58-4.39,1.59s-.16,3.11-.27,4.72c0,.78-.25,2.15-.57,2.21a13.55,13.55,0,0,1-4.07,0c-.23,0-.47-1-.5-1.59-.06-1.68,0-3.36,0-5l-.73.38a15.47,15.47,0,0,1-2-2.52c-.63-1.23-1.29-1.84-2.82-1.59Q63.37,10.35,54,11.64c-1.76.24-2,1.37-1.78,2.61.23,1.58-.43,2-1.84,2.16s-2.86.47-4.54.76c0,1.85-.11,3.61,0,5.34.16,2-1,2.1-2.42,2s-2.92.4-2.75-1.91c.12-1.68,0-3.38,0-5.07.06-1.42-.59-1.91-1.92-1.91q-16.71,0-33.42,0c-1.29,0-1.78.54-1.76,1.8,0,2.92,0,5.84,0,8.76,0,1.36.43,2,1.86,1.9,1-.07,2,0,3,0,2.63,0,4,2.16,2.77,4.46a2.05,2.05,0,0,1-1.51.66c-1.44.09-2.89,0-4.49,0a13.81,13.81,0,0,0-.14,2.19c.24,2.26.09,4.11-2.94,4.08-.39,0-1.11,1-1.12,1.55q-.14,7.47,0,15a2.2,2.2,0,0,0,1.17,1.56c1.58.65,3.26,1.07,5.1,1.65A59.06,59.06,0,0,1,7.17,68c-.15,1-2,2.19-3.18,2.42C1.4,70.86.92,72.1,1.17,74.51c.4,3.79.4,7.63.58,11.44.15,3.12.17,3.13,3.27,3.33a8.13,8.13,0,0,1,1,.22c.2,3.7.47,7.37.55,11,0,.48-.9,1.35-1.46,1.41-1.92.22-2.58,1.06-2.45,3,.3,4.27.53,8.56.53,12.83,0,2,.72,2.91,2.57,2.86,1.45,0,1.86.62,1.89,1.92.06,2.29.21,4.58.34,7.27,2,0,3.87.1,5.75,0s1.87,1.08,1.8,2.37.43,2.78-1.76,2.68c-1.74-.08-3.49,0-5.52,0,.35,4.52.6,8.71,1.08,12.89.06.55,1.25,1.38,1.93,1.39,5.84.09,11.69,0,17.53,0,.5,0,1.33-.15,1.46-.46.85-2.06,2.59-1.51,4.11-1.52,3.05,0,6.1,0,9.36,0V130H107c0-2.3,0-4.27,0-6.23,0-1.23.28-1.86,1.65-1.85s1.81.48,1.77,1.78c-.06,2,0,3.94,0,6.17H154v33.33c-2.74.84-3.15.57-3.16-2.12,0-8.53,0-17.06,0-25.59,0-1.73-.51-2.24-2.23-2.22-7.69.08-15.37,0-23.06.08-.76,0-1.51.65-2.28,1a5,5,0,0,1-1.66.5c-4.22,0-8.45.07-12.68,0-.68,0-1.33-.67-2-1a5.33,5.33,0,0,0-1.88-.51q-10.14-.06-20.29,0a5.3,5.3,0,0,0-1.84.57c-.71.28-1.39.88-2.1.89q-6.23.13-12.45,0c-.68,0-1.36-.63-2-1a3.24,3.24,0,0,0-1.21-.47c-5.83,0-11.66,0-17.88,0v6.08c0,2.92-.11,5.84,0,8.76.1,1.91-.63,2.36-2.39,2.3-3.46-.11-6.92,0-10.38-.05-1.58,0-2.22.38-2,2.13.63,4.33,1,8.7,1.67,13,.16,1.07,1,2,1.48,3.06a7.08,7.08,0,0,1,.59,2c.41,3.43.73,6.87,1.17,10.3.18,1.37,0,2.19-1.63,2.36s-2.09,1-1.85,2.72c.57,3.86.9,7.75,1.36,11.62s.48,3.88,4.41,4.19c.23,2,1.59,2.08,3.28,2.07q38.5-.06,77,0c9.53,0,19.06,0,28.59.12,1.73,0,2.25-.5,2.23-2.22-.07-8.53,0-17.07,0-25.6,0-2.92,0-2.92,3.23-2.63,0,.69.11,1.42.11,2.15q0,28.59,0,57.19c0,.81-.43,2.13-1,2.33-1.48.52-2.37-.08-2.35-1.95.08-7.76,0-15.53.08-23.29,0-2.1-.55-2.76-2.7-2.72-7.38.13-14.76.05-22.14.05h-2.3l-.5,2.56h-16l-.39-2.43c-.84,0-1.67-.13-2.49-.13q-26.76,0-53.5.05c-1,0-1.9.77-2.87,1.12a5.36,5.36,0,0,1-1.71.42c-1.67,0-3.34,0-5.31,0,.52,3.21.93,6.15,1.5,9.06.28,1.44.22,2.32-1.52,2.59-1.44.22-2.12,1-1.76,2.78.93,4.56,1.58,9.19,2.41,13.78.11.58.64,1.56,1,1.56,3,0,5.42,2.43,8.7,1.89,3-.49,3.9.95,3,3.93-.14.48-1,.91-1.67,1.05a11.84,11.84,0,0,1-2.53,0H47.16c.66,3.12,1.16,6,1.88,8.76.44,1.73.43,2.92-1.69,3.35-1.29.25-1.75,1-1.38,2.54,1.08,4.46,2,8.95,2.85,13.47.32,1.78,1.2,2.29,2.85,2.08.56-.07,1.6,0,1.64.11.65,2.92,3,1.71,4.66,1.92a9.32,9.32,0,0,0,2.3,0c2-.25,2.69.43,2.69,2.53s-.59,2.91-2.73,2.7c-1.57-.16-3.18,0-5.1,0,1,4.85,1.94,9.35,3,13.8a2.19,2.19,0,0,0,1.71,1.09c5.15.08,10.3.05,15.45,0,.37,0,1,0,1.09-.2,1.41-3,4.09-1.51,6.23-1.76a47.92,47.92,0,0,1,5.26,0V279.54h27.65l.47-2.68c5.09,0,10.15-.07,15.2.1.59,0,1.14,1.4,1.95,2.44h17.53v-34h3.48V256h27.06v-9c.87-.09,1.46-.2,2-.2,8.15,0,16.3,0,24.45,0,1.65,0,2.3.41,2.29,2.18-.07,13.38,0,26.75,0,40.12,0,1.17,0,2.07-1.64,2.11s-1.89-.83-1.82-2.15c.05-1.15,0-2.31,0-3.46s.37-2.33-1.17-2.88c-.27-.1-.38-1-.39-1.45,0-3.3,0-6.61,0-9.91a5.15,5.15,0,0,1,.69-1.75c.28-.63.83-1.24.84-1.87.07-5.23,0-10.45.06-15.68,0-1.38-.44-1.92-1.85-1.91q-9.11.07-18.22,0c-1.36,0-2,.41-1.91,1.85.09,1.68-.1,3.39,0,5.07.19,2-.49,2.65-2.56,2.63-8.37-.11-16.75-.05-25.13-.05h-2.79v6.84c0,4.54-.17,9.08.06,13.6.13,2.5-.79,2.9-3,2.89-18.91-.08-37.82-.05-56.73-.05H91.22V296c0,3.3,0,3.3-3.2,3.3H78.81a21.17,21.17,0,0,0,.31,2.47c1.88,7.28,3.82,14.55,5.66,21.84.41,1.64,1.15,2.3,2.87,2.17,2-.15,4,0,6-.05s1.82,1.17,1.76,2.43.5,2.81-1.69,2.76c-1.67-.05-3.34,0-5.43,0,.85,2.89,1.52,5.46,2.36,8,.47,1.37.27,2.16-1.17,2.62-1.72.54-2,1.61-1.44,3.35,1.27,3.76,2.32,7.59,3.44,11.4,1,3.55,1,3.55,4.85,2.81.23.41.68.84.72,1.3.24,2.9,2,3.4,4.45,3a5.64,5.64,0,0,1,.92,0c4.52,0,4.52,0,4,4.93H99.59l2.67,8.14c-3.51,2.24-3.52,2.24-2.22,6.1,1,3.11,2.06,6.23,3.2,9.3,1.52,4.12.55,3.77,5.3,2.93.51,1.44,1.11,2.9,1.55,4.42a2,2,0,0,0,2.32,1.66c1.06-.1,2.16.08,3.22-.05,2-.22,2.66.44,2.68,2.53s-.68,2.91-2.76,2.64a21.15,21.15,0,0,0-2.66,0,6.4,6.4,0,0,0,.14,1.45c1.67,4.45,3.32,8.91,5.12,13.31a2.87,2.87,0,0,0,2,1.59c4.76.15,9.53.11,14.29.1.44,0,1.22-.13,1.27-.34.68-2.59,2.76-1.58,4.3-1.66,2.6-.13,5.21,0,8.18,0,0-2.26,0-4.38,0-6.5,0-3.69,0-7.38-.07-11.07,0-1.52.52-2,2-2,3.15.08,6.3,0,9.45.07.68,0,1.34.61,2,.95.44.22.87.65,1.31.66,3.14.06,6.28,0,9.76,0v-2.89c0-19.14.05-38.28,0-57.42,0-2.13.59-2.75,2.71-2.72,9.46.1,18.91,0,28.37.08,2.17,0,3-.55,2.88-2.83-.18-4.28,0-8.57,0-12.86l-2.49-.57V309.58c2.41.21,2.65-1.22,2.51-3-.1-1.23,0-2.46,0-3.69s.29-2,1.78-2,1.69.85,1.69,2.07c0,20.6,0,41.2,0,61.79,0,2-1.06,2.24-2.68,2.37,0,5.26,0,10.39,0,15.52a4.92,4.92,0,0,0,.32,1.06c.23,1,.44,2,.65,3.05-1.26.11-2.51.27-3.77.27-.21,0-.6-.68-.6-1.05,0-7.37,0-14.73,0-22.21l2.59-.5c0-3.09,1.08-6.79-.25-9.06-2.18-3.71-.47-7.4-1.62-11.09H176.13v2.7c0,19.14,0,38.28.05,57.42,0,2.28-.69,2.82-2.87,2.78-6.37-.12-12.75,0-19.13,0-.75,0-1.5.06-2.53.11V420c0,4.36.34,3.81-3.82,3.83-3.53,0-7.05,0-10.89,0,.25.9.37,1.55.61,2.16,2.26,5.54,4.52,11.09,6.83,16.61a7.74,7.74,0,0,0,1.15,1.56ZM117,7.47c.07.83.18,1.42.18,2q0,47.73,0,95.47c0,1.92-.73,2.37-2.44,2.3-2.27-.1-4.55,0-7,0,0,1.32-.06,2.32,0,3.29a1.18,1.18,0,0,0,.79.84c.29,0,.9-.45.9-.69-.06-2,1.34-1.7,2.55-1.7,9.6,0,19.21,0,28.82,0,.65,0,1.29-.6,1.94-.92a11.92,11.92,0,0,0-1.92-.75,9.29,9.29,0,0,0-1.83,0l-19.73-.4c-.11-6.58-.29-13.17-.3-19.75Q119,49,119,11c0-3.39,0-3.36,3.25-4.13.43-.1.74-.71,1.11-1.08C123,5.51,122.6,5,122.25,5c-3,.25-6,.57-8.94.94-.32,0-.59.52-.88.8.36.29.69.82,1.06.84A33,33,0,0,0,117,7.47ZM153.42,257c0-3.26.05-6.16,0-9.07a6.06,6.06,0,0,0-.88-2,6.28,6.28,0,0,0-.82,2c-.05,9.06,0,18.13,0,27.2,0,5.17,0,5.17-5.26,5.17-4.14,0-8.29,0-12.44.05-.51,0-1,.6-1.51.92.37.3.73.86,1.1.86,6.51.05,13,0,19.76,0,0-1,.11-1.86.11-2.68,0-5.61,0-11.21,0-16.82,0-4.47-.47-3.84,4-3.86,6.61,0,13.21,0,19.82,0,2.06,0,5,.61,5.94-.45,1.1-1.24.47-4,.59-6.14a2.36,2.36,0,0,0,0-.46c-.26-1.82.5-2.4,2.32-2.37,6.23.09,12.45.11,18.67,0,2,0,2.68.57,2.63,2.61-.13,5.22-.07,10.44,0,15.67,0,.62.53,1.23.81,1.84.32-.63.92-1.26.93-1.9.07-6.15,0-12.29,0-18.44,0-.44-.08-.88-.13-1.4H182c0,2.18-.14,4.25,0,6.29.19,2.23-.37,3.15-2.86,3-3.9-.24-7.83-.06-11.75-.06Zm20.06,83.39v3c0,19.05,0,38.1,0,57.16,0,2.16-.5,3.06-2.8,2.89a71.36,71.36,0,0,0-7.6,0c-.52,0-1,.55-1.53.84.51.3,1,.84,1.53.85,3.23.08,6.46-.08,9.68.08,2,.11,2.58-.55,2.57-2.58-.08-18.36,0-36.72,0-55.09,0-5.4,0-5.4,5.44-5.4,7.45,0,14.9,0,22.36,0,.59,0,1.17-.57,1.76-.88a5.22,5.22,0,0,0-1.76-.83c-1.91-.11-3.84,0-5.76,0ZM153.29,130.79c-.78-.06-1.37-.14-2-.15H129c-1.46,0-2.92-.06-4.38.05-.38,0-.72.56-1.08.86.35.31.65.76,1.05.89a5.38,5.38,0,0,0,1.61.06c7.68,0,15.37.05,23.06,0,1.92,0,2.5.6,2.48,2.5-.09,8.45,0,16.91,0,25.36a8.64,8.64,0,0,0,.1,1.84,1,1,0,0,0,.77.58,1,1,0,0,0,.8-.58,5.61,5.61,0,0,0,.11-1.59q0-13.73,0-27.44C153.42,132.38,153.34,131.63,153.29,130.79Zm.13,73.56V176.71a5,5,0,0,0,0-1.6c-.14-.4-.61-.68-.94-1a3.65,3.65,0,0,0-.74.95,4.8,4.8,0,0,0,0,1.37v55.74a6.08,6.08,0,0,0,.09,1.6.82.82,0,0,0,1.57.07,7.94,7.94,0,0,0,.1-1.83Q153.42,218.18,153.42,204.35ZM194.2,29.5l-.58.06v75l.9,0v-5q0-26.36-.07-52.72c0-1.58.49-2.26,2.11-2.18a25.2,25.2,0,0,0,3.12-.17v-.76c-1,0-2-.16-3-.14-1.51,0-2.23-.49-2.17-2.15.1-3.3.05-6.6,0-9.9A15.15,15.15,0,0,0,194.2,29.5ZM77.58,204.74H55.46c-2.08,0-4.16,0-6.23,0-.36,0-.7.55-1,.85.3.28.56.69.92.8a6.07,6.07,0,0,0,1.6.06h53.71a6.45,6.45,0,0,0,1.82-.11c.31-.09.58-.61.65-1,0-.16-.44-.57-.73-.62a10.24,10.24,0,0,0-1.84-.06Zm12.81,93.8c0-5,.07-9.57,0-14.16,0-1.73.53-2.24,2.23-2.22q10.48.1,21,0a6.31,6.31,0,0,0,2.17-.94,7,7,0,0,0-2.24-.86c-7.52-.07-15-.05-22.57,0-.73,0-1.46.11-2.32.18,0,4.92,0,9.59,0,14.26,0,1.51-.49,2.06-2,2q-3.8-.11-7.59,0c-.42,0-.81.63-1.22,1,.41.25.81.71,1.21.71C82.69,298.56,86.37,298.54,90.39,298.54Zm-44-148.91c0-5.27.06-10.1,0-14.93,0-1.71.55-2.28,2.26-2.25,5.29.09,10.59.06,15.88,0a5.42,5.42,0,0,0,1.87-.77c-.63-.34-1.27-1-1.9-1-5.91-.07-11.82,0-17.72-.08-1.83,0-2.2.71-2.18,2.3.06,4.29-.06,8.59,0,12.88,0,1.77-.57,2.25-2.26,2.19-3.14-.11-6.29-.05-9.43,0-.41,0-.82.44-1.23.68.32.32.63.93.95.93C37.15,149.65,41.65,149.63,46.38,149.63ZM204.67,310.39v9.79c0,1.34-.37,2.88,1.88,2.84.25,0,.73,1.21.74,1.86.07,4.23,0,8.46.07,12.68a5.74,5.74,0,0,0,.81,1.85c.32-.64.91-1.27.93-1.91.09-3.53,0-7.07,0-10.61v-5.65l-.84.35c-.6-.73-1.82-1.62-1.68-2.18.65-2.7-2.34-6.58,2.52-8,0-2.73,0-5.5,0-8.26,0-.47-.49-.94-.76-1.4-.33.48-.91.94-1,1.45a19.65,19.65,0,0,0,0,3.91C207.53,309,207.21,310.48,204.67,310.39ZM194.9,109c-.23-1.22-.39-2.08-.55-3a10.22,10.22,0,0,1-2,1,8.61,8.61,0,0,1-2.28.16h-33a10.84,10.84,0,0,0-2.06.07c-.34.07-.59.52-.89.8.29.28.53.73.86.81a8,8,0,0,0,1.83.06h38Zm9.87,277.57c1.16-.29,2-.47,2.79-.74a3.32,3.32,0,0,0-.15-1,13.86,13.86,0,0,1-.85-3.11c-.1-4.21,0-8.43-.08-12.65,0-1.9.06-3.41,2.66-3.16,0-3.94,0-7.69,0-11.43,0-.49-.6-1-.92-1.45-.29.53-.79,1-.81,1.6a59.19,59.19,0,0,0,0,6.66c.13,1.95-.2,3.33-2.59,3.21Zm-82.7-181.41h-13.8v3.5h13.8ZM150.8,414.6c0-2.22.08-4.45-.05-6.66,0-.65-.64-1.27-1-1.9a5.56,5.56,0,0,0-.75,1.87c-.08,3.75-.1,7.51,0,11.26,0,1.62-.54,2.16-2.13,2.11-2.83-.08-5.67-.06-8.5,0-.49,0-1,.64-1.46,1,.48.26,1,.73,1.44.74,3.6.06,7.21,0,10.8.06,1.4,0,1.68-.65,1.65-1.84C150.77,419,150.8,416.82,150.8,414.6ZM117.08,281.8h11.17c3.28,0,3.35-.08,2.6-3.59H117.08ZM137,206.5c4,0,8,0,12,0,.6,0,1.19-.56,1.79-.86-.59-.29-1.18-.82-1.77-.83q-11.85-.08-23.7,0c-.6,0-1.19.54-1.78.82.59.31,1.17.86,1.76.87C129.16,206.54,133.07,206.5,137,206.5Zm-41.93-74c3.37,0,6.74,0,10.1,0,.61,0,1.19-.56,1.79-.86-.58-.32-1.15-.91-1.73-.92q-10.34-.09-20.68,0c-.55,0-1.11.64-1.66,1,.54.28,1.07.79,1.61.8C88,132.53,91.54,132.5,95.06,132.5ZM122,133.62c.7-2.08,0-2.7-1.9-2.6s-3.68,0-5.52,0h-6.5l.25,2.57Zm-54.32,0H81.47v-2.41H67.65ZM208.77,351.51V340.87c-2.52-.36-2.56-.37-2.61,1.79,0,2.37.08,4.75,0,7.12C206,351.93,207,352,208.77,351.51Zm-48.53,50.6c-3,0-5.91,0-8.81,0-2.35,0-2.52.19-1.77,2.6h10.58ZM208.82,271c-2.64-.33-2.66-.32-2.67,1.84s.09,4.57,0,6.85,1,2.3,2.71,1.81ZM117.18,423.18l.59-.52c-1.92-5.22-3.82-10.45-5.8-15.64-.18-.47-.91-.72-1.39-1.07l-.46.46c1.92,5.22,3.82,10.44,5.8,15.64C116.1,422.52,116.75,422.81,117.18,423.18ZM57,298.64l.5-.49c-1-4.56-1.89-9.12-2.93-13.66-.14-.61-.8-1.1-1.23-1.64l-.7.45c1,4.76,2,9.53,3.11,14.28C55.87,298,56.59,298.29,57,298.64ZM42,23.4l2.5-.19v-7.9l-2.5.22Zm4.8,181.69H38.59c.57,1.08.89,2.38,1.33,2.42,2.31.21,4.65.1,7.12.1ZM79.51,18.84C80.7,18.15,82,17.79,82,17.31c.22-2.29.1-4.62.1-7.07l-2.59.23Zm-73.1,123h0c.18,2.21.33,4.43.58,6.63,0,.4.52.75.8,1.12.25-.3.72-.62.7-.9q-.45-6.41-1-12.79c0-.34-.52-.63-.79-.94-.24.39-.7.79-.69,1.17C6.05,138,6.25,139.91,6.41,141.82Zm39,102.47h7.55v-2.52H45.23Zm52,122.89c2.4,0,4.53.08,6.64-.07.45,0,1-.85,1.18-1.41.07-.27-.77-1.07-1.23-1.09-2.11-.12-4.23-.06-6.47-.06Zm-91-236.1.28,2.48h7.46l.54-.56c-.53-.64-1-1.77-1.59-1.84A66.38,66.38,0,0,0,6.4,131.08Zm80.12,196c-.35,2.37-.32,2.54,1.07,2.59,2.11.09,4.22,0,6.41,0v-2.62Zm68-324.29c0,2.12.07,4,0,5.79-.09,2.08.89,2.27,2.53,1.7V2.83ZM10,29.37H3.49V32H10ZM36.68,181.43c-.46-3.9-.84-7.4-1.32-10.89-.07-.46-.65-.85-1-1.27-.2.49-.61,1-.56,1.46.37,3.5.82,7,1.31,10.48.06.38.58.7.89,1ZM5.57,95.77H5.45c0-1.53,0-3.06,0-4.57,0-.4-.55-.75-.84-1.13-.33.41-1,.82-.94,1.22.05,3,.2,5.95.42,8.92,0,.36.6.68.92,1,.28-.37.8-.74.81-1.12C5.8,98.67,5.66,97.22,5.57,95.77ZM110.37,404.7h6.45c.65-1.92,0-2.72-1.83-2.65-1.5.05-3,0-4.62,0ZM61.6,279.35H54.21l-.12,2.17c2.38-.26,4.85,1,6.65-1.21l.86,1.39Zm-13-22.91c-.86-4-1.48-7-2.2-9.95-.08-.35-.74-.55-1.13-.82-.15.38-.49.79-.42,1.12q.89,4.5,1.92,9a1.34,1.34,0,0,0,.89.81A1.82,1.82,0,0,0,48.65,256.44Zm37.13,74.63c1,3.39,1.93,6.52,2.86,9.65l.73.08c.16-.54.53-1.12.44-1.61C88.79,333.79,87.66,331.37,85.78,331.07ZM38.45,208.71c.69,4,1.29,7.48,2,11.57C42.11,217.91,40.64,209.79,38.45,208.71ZM98,368.36l-.81.49c.72,2.16,1.42,4.32,2.16,6.47a14.61,14.61,0,0,0,.67,1.38l.59.06c.13-.57.53-1.27.34-1.69C99.91,372.86,100.11,370,98,368.36ZM7.05,126.59a38.65,38.65,0,0,0-.24-4c-.06-.38-.6-.69-.93-1-.25.37-.74.74-.73,1.1,0,2.06.2,4.11.39,6.16,0,.33.48.62.73.93.31-.34.84-.66.87-1A12.76,12.76,0,0,0,7.05,126.59ZM209.13,286.8h0a29,29,0,0,0,0-2.95,1.15,1.15,0,0,0-.82-.77c-.3,0-.86.44-.88.71-.07,1.9-.09,3.8,0,5.69,0,.33.62.64,1,1,.26-.38.69-.73.75-1.14A17.35,17.35,0,0,0,209.13,286.8Zm.48,30.06-.45-.17a26.87,26.87,0,0,0,0-3c0-.33-.49-.62-.76-.93-.34.32-.91.61-1,1a10.56,10.56,0,0,0-.05,3,34.13,34.13,0,0,0,.81,3.43C208.65,319.06,209.13,318,209.61,316.86ZM107.35,126.36l1.41,3.39a11.5,11.5,0,0,0,.72-3.42c-.11-1.16,1.08-2.79-.9-3.49ZM45.82,16.19c1.76-.22,3.37-.38,5-.69.17,0,.41-1.17.2-1.37C50.24,13.39,46.35,14.79,45.82,16.19ZM4,65.1c2.51-.84,1.79-2.72,1.78-4.56l-2.19-.17L3.47,61l1.95.68C5.3,63,2.23,63,4,65.1ZM109.77,400.81c-.54-1.65-1-3-1.46-4.35a1.2,1.2,0,0,0-.8-.59.92.92,0,0,0-.73.44C106.27,397.22,108.24,400.56,109.77,400.81ZM151.44,2l-2.79,1.37a13,13,0,0,0,3,.55c.57,0,1.12-.68,1.68-1.06ZM4.3,35.91l.3-.12-1-2.48c-.3.87-.64,1.73-.89,2.62a2.17,2.17,0,0,0,0,1.13,7.4,7.4,0,0,0,.67,1.23A7.45,7.45,0,0,0,4.27,37,3,3,0,0,0,4.3,35.91ZM84.85,11l2.38-1.41c-.45-.25-1-.76-1.34-.68a13.47,13.47,0,0,0-2.45,1ZM97.23,363.77a20.06,20.06,0,0,0-1-3.16c-.12-.22-.91-.08-1.4-.1a11.82,11.82,0,0,0,.61,2.34C95.56,363.19,96.22,363.29,97.23,363.77Z"/><path class="cls-1" d="M174.38,130.64h6.06v3.19l-2.72.52c0,4.56,0,9.08.06,13.6a1.68,1.68,0,0,0,1.21,1.17c4.6.09,9.19.06,13.95.06V134.49c-1-.42-2.21-.55-2.62-1.2-.9-1.42.1-2.76,1.88-2.76,6.69,0,13.38,0,20.06,0,1.43,0,2.09.33,2.08,1.91s-.9,1.69-2.09,1.67c-1.68,0-3.35,0-5.28,0,0,1-.11,1.82-.11,2.63,0,6.54,0,13.07,0,19.6,0,1.26.36,2.66-1.81,2.62s-1.64-1.53-1.69-2.73,0-2.1,0-3.3H177.87v18.05H203.2c.09-1,.18-1.86.26-2.72,3.1-.86,3.39-.64,3.39,2.44,0,2.77,0,5.53,0,8.3,0,1.38-.46,1.9-1.88,1.88s-1.72-.62-1.67-1.84,0-2.6,0-4.11H177.86v18h25.29c.52-1.26-.63-3.69,2.11-3.13.6.12,1.49.88,1.51,1.38.14,3.38.15,6.76,0,10.14,0,.49-1.09,1.16-1.78,1.34-1.08.28-1.71-.29-1.66-1.53s0-2.74,0-4.31H177.85v18h25.3c.1-.9.21-1.86.32-2.79,3.2-.78,3.38-.65,3.38,2.44,0,2.83,0,5.66,0,8.8,2.35,0,4.48.06,6.59,0,1.35,0,1.71.56,1.72,1.8s-.4,1.82-1.72,1.8c-3.28,0-6.57,0-10.12,0v-8.15H177.68c0,1.82,0,3.56,0,5.3,0,3.09,0,3.09-3.3,2.6Zm31,60.44c-1.13,1.17-.35,3.3-3.1,3.23-7.91-.21-15.83-.1-23.74-.07-1.46,0-2.06-.44-2.05-2,.07-5.61.05-11.22,0-16.83,0-1.32.43-2,1.85-2q12.1,0,24.21,0c1.49,0,2.07.65,2,2.1s0,2.62,0,3.93l.83,0V169.05c-.55.17-.82.44-.79.66.38,2.49-1.08,2.68-3,2.66q-11.42-.1-22.83,0c-1.5,0-2.26-.32-2.24-2q.1-8.3,0-16.59c0-1.62.61-2.16,2.17-2.15q11.86.06,23.74,0c1.57,0,2.27.52,2.15,2.15-.09,1.27,0,2.56,0,3.83h.87v-7.12h-2c-8.14,0-16.29,0-24.44,0-1.61,0-2.6-.27-2.54-2.25.13-4.53,0-9.07.16-13.6,0-.61.88-1.25,1.45-1.76a5.55,5.55,0,0,1,1.64-.55c-3.79-1.06-4.29-.73-4.29,2.39q0,31.82-.05,63.61c0,8.22,0,16.44,0,24.66a17.2,17.2,0,0,0,.36,2.55l.81-.08c0-2,.06-4.07,0-6.1,0-1.47.5-2.09,2-2.09,8,0,16,0,24,0,1.64,0,2.15.68,2.1,2.21-.08,2,0,4,0,5.74h9.28l0-.7h-5c-3.12,0-3.13,0-3.13-3,0-2.15,0-4.3,0-6.45,0-.68-.14-1.36-.21-2h-.64c-.09.54,0,1.21-.31,1.61-.43.61-1.12,1.47-1.71,1.47-8.06.1-16.12.05-24.19.1-1.58,0-2.15-.58-2.13-2.16q.1-8.41,0-16.83c0-1.26.35-1.8,1.7-1.8q12.21.09,24.43,0c1.42,0,2,.5,1.87,1.89s0,2.78,0,4.16l.87,0ZM203.19,143h-6.53a43.67,43.67,0,0,0,.06,4.76,1.92,1.92,0,0,0,1.19,1.4c1.71.17,3.45.07,5.28.07Zm0-3.74v-4.93H196.9c-.71,4.94-.71,4.94,3.84,4.93Zm-9.09,2.18c0,1.69-.1,3.38,0,5.06a12.53,12.53,0,0,0,.84,2.65,11.22,11.22,0,0,0,.68-2.6c.07-4.67,0-4.63,4.79-4.71a12.27,12.27,0,0,0,2.84-.74,10.31,10.31,0,0,0-2.72-.81c-4.59-.09-4.59-.05-4.88-4.62,0-.08,0-.17,0-.23-.22-.42-.45-.83-.68-1.24-.3.42-.83.83-.85,1.26C194.07,137.4,194.12,139.39,194.12,141.39Zm10.61.15.9,0c0-1.46,0-2.92,0-4.38,0-4.26,0-4.24,4.17-4.29,1.06,0,2.11-.16,3.16-.25l-.06-.62h-8.72C204.37,135.29,204.55,138.41,204.73,141.54Zm.67,1.72-.55,0v5.57l.55,0ZM191.56,132v.54h5.06V132Z"/><path class="cls-1" d="M232.28,134.07c-1.92,0-3.75,0-5.57,0-3.07,0-3.26-.28-2.36-3.41H236v9.5h26.18V131c3.24-.94,3.63-.7,3.63,2.06q0,45.65,0,91.31c0,.68-.06,1.36-.1,2.24H254.2c-.85-3.08-.65-3.36,2.4-3.37h5.46V182.61H250.48v-.27c3.28,0,6.57-.06,9.85,0,1.58,0,2-.68,1.91-2.1-.32-4.54-1.18-5-6.68-3.86l-.46-2.85c.64.46,1.3.7,1.31,1,.06,1.51,1.06,1.41,2.09,1.43,3.73.09,3.72.1,3.67-3.55,0-1.77,0-3.54,0-5.45H250.47v-.29c3.27,0,6.54-.08,9.81,0,1.74.06,2.18-.7,1.93-2.21,0-.08,0-.15-.06-.22-.42-4-.42-4-4.58-3.88-2.35.06-4.71,0-7.06-.15,3.29,0,6.58,0,9.87,0,1.16,0,1.9-.18,1.88-1.61-.06-4.19-.09-8.38,0-12.57,0-1.66-.54-2.08-2.12-2.07q-10.95.12-21.91,0c-1.75,0-2.23.54-2.21,2.24.09,6.25.06,12.5,0,18.76,0,1.37.62,1.69,1.83,1.68,3.29,0,6.58,0,9.87.17-3.26,0-6.52.06-9.78,0-1.55,0-2,.53-1.9,2,.13,2.24,0,4.49,0,6.92h11.6v.28c-3.21,0-6.41,0-9.62,0-1.26,0-2,.27-2,1.78,0,8.62,0,17.25,0,25.87,0,5.69.09,11.38-.06,17.07,0,2.1.63,2.74,2.62,2.51,1.21-.15,2.46,0,3.69,0s2,.26,2,1.76-.59,1.85-1.93,1.83c-5.31,0-10.61,0-15.91,0a10.36,10.36,0,0,1-1.51-.22c-.5-3.26-.45-3.32,2.51-3.33h4.81ZM225.33,132v.9c2.17,0,4.34,0,6.51,0,1.34,0,2.05.41,1.86,1.89a14.21,14.21,0,0,0,0,1.84q0,42.5,0,85c0,2.93,0,3-2.92,2.93h-4.74l0,1A133,133,0,0,0,242.9,225a18.61,18.61,0,0,0-5.69-.46c-1.83.1-2.39-.69-2.39-2.45q.08-38.37,0-76.74c0-2,.66-2.49,2.51-2.47,7.91.07,15.83.09,23.74,0,1.89,0,2.38.71,2.37,2.42q0,38.39,0,76.75c0,1.92-.68,2.61-2.56,2.49s-3.77,0-5.66,0l0,.86h9V131.89l-.65,0a14.76,14.76,0,0,0-.23,1.86c0,1.69-.1,3.39,0,5.07.17,2.13-.53,2.94-2.81,2.91-7.76-.13-15.52-.12-23.28,0-2.12,0-2.66-.8-2.55-2.73.13-2.33,0-4.68,0-7Z"/><path class="cls-1" d="M218.71,384c3-.37,2.94-.32,3,2.55.23,7.47,1.32,15,.6,22.38-.85,8.66-.39,17.26-.54,25.89-.1,5.69,1.09,11.45.63,17.09-1.58,19.54-.19,39.08-.7,58.6,0,.91,0,1.81,0,2.66,3.57.89,3.57.89,3.4,5.52H215v-4.91l3.34-.4v-2.51c0-18.13.34-36.28-.21-54.4-.17-5.74-1.32-11.63-.51-17.25,1.25-8.65.44-17.24.64-25.85.12-5.44-.79-10.9-.75-16.35C217.49,392.69,218.25,388.42,218.71,384Zm.37,99.68c0,9.29,0,18.58,0,27.87,0,.65.57,1.31.87,2,.3-.68.86-1.35.86-2q.08-27.75,0-55.5c0-.65-.6-1.3-.93-1.95a6,6,0,0,0-.8,2C219.07,465.2,219.08,474.42,219.08,483.63Zm0-59.68c0,3.91,0,7.83,0,11.74,0,.54.48,1.08.74,1.62.34-.56,1-1.12,1-1.68.07-7.75.06-15.5,0-23.25,0-.54-.52-1.08-.8-1.62-.32.56-.91,1.11-.92,1.68C219.05,416.28,219.08,420.11,219.09,424Zm2.13-14.56V395.47h-2.44v13.92Zm0,43.21V438.78H218.8v13.94Zm-5,64.67h7.59v-2.53c-2.07,0-4,0-5.88,0S215.69,515.53,216.24,517.27ZM220.9,389.5h0c0-1.3.07-2.61,0-3.9,0-.36-.62-.66-1-1-.26.3-.75.6-.76.91-.06,2.52-.07,5,0,7.56,0,.34.59.66.91,1,.29-.37.78-.73.82-1.13C221,391.8,220.9,390.64,220.9,389.5Z"/><path class="cls-1" d="M219.81,30c-6.52,0-13,0-19.56,0-1.28,0-2.87-.1-2.6-1.61.23-1.28-.31-3.42,2.72-3.37q19.55.34,39.11,0c3-.05,2.51,2,2.72,3.36.26,1.6-1.34,1.62-2.6,1.61Q229.7,30,219.81,30Z"/><path class="cls-1" d="M83.39,60.9c0,2.15-.1,4.31,0,6.45.11,1.87-1,2-2.32,1.87s-3,.69-2.93-1.72c0-4.37.06-8.75,0-13.13,0-2.38,1.66-1.65,2.9-1.76s2.45,0,2.35,1.85C83.3,56.6,83.39,58.75,83.39,60.9Zm-3.87,7c2.11.63,2.72-.1,2.67-2-.11-3.36-.13-6.74,0-10.1.08-2.19-.82-2.51-2.65-1.79Z"/><path class="cls-1" d="M356.6,60.68c0-2.15,0-4.3,0-6.45s1.64-1.52,2.79-1.61,2.33-.23,2.3,1.63q-.12,6.68,0,13.36c0,2.1-1.43,1.58-2.54,1.59s-2.61.46-2.55-1.61C356.66,65.29,356.6,63,356.6,60.68ZM358,67.82l.7.6c.59-.51,1.69-1,1.7-1.54.1-4.21,0-8.41-.06-12.62,0-.18-.26-.36-.45-.61l-1.89.29Z"/><path class="cls-1" d="M289,325.76h3.44c3,0,4,1.39,3,4.24a2,2,0,0,1-1.52.94c-3.43.09-6.88,0-10.32.05-2.25,0-1.49-1.66-1.57-2.8s-.32-2.56,1.69-2.45C285.47,325.84,287.23,325.76,289,325.76Zm5.29,1.29c-3.48,0-6.67,0-9.86.06-.4,0-1.07.83-1.08,1.27s.68,1.24,1.08,1.25c3.18.11,6.37.06,9.66.06Z"/><path class="cls-1" d="M281.51,55.94c5.18-.61,5.18-.61,5.18,4,0,2.38-.13,4.77,0,7.14.15,2.14-1.05,2.16-2.58,2.12s-2.76.24-2.68-2C281.62,63.5,281.51,59.75,281.51,55.94Zm3.88.93-2.65.21c0,3.07.06,6,0,8.87-.06,2,.69,2.66,2.67,1.81Z"/><path class="cls-1" d="M48,171.83v-4.92c4.12,0,8.24-.08,12.33.14.37,0,.83,2,.88,3,0,.56-.73,1.66-1.15,1.67C56.09,171.88,52.12,171.83,48,171.83Zm.48-3.73c.73,1.17,1.13,2.44,1.6,2.46,3.25.18,6.51.09,10,.09l-.18-2.55Z"/><path class="cls-1" d="M151.14,325.77c1.61,0,3.22.08,4.83,0,1.81-.12,2,.9,1.9,2.3-.12,1.25.57,2.94-1.78,2.9-3.3-.05-6.6-.06-9.89,0-2.36.05-1.67-1.64-1.79-2.89s.06-2.44,1.9-2.31C147.91,325.86,149.53,325.77,151.14,325.77Zm5.49,1.47H145.57l.17,2.32h10.89Z"/><path class="cls-1" d="M385.13,171.85c-1.61,0-3.22,0-4.82,0-1.85.07-1.65-1.21-1.59-2.34s-.57-2.66,1.51-2.65c3.45,0,6.9,0,10.34,0,1.85,0,1.65,1.22,1.59,2.35s.57,2.66-1.51,2.64C388.81,171.83,387,171.85,385.13,171.85ZM380,170.48h10.94v-2.29H380Z"/><path class="cls-1" d="M153.36,55.93c5-.56,5-.56,5,4,0,2.6.1,5.21-.08,7.81a2.18,2.18,0,0,1-1.63,1.43c-1.11,0-3.07,1-3.2-1C153.18,64.1,153.36,60.05,153.36,55.93Zm3.73,11.95V57.12h-2.52c0,3.19.06,6.16,0,9.14C154.49,68.26,155.48,68.36,157.09,67.88Z"/><path class="cls-1" d="M399.3,64.13V66c0,3.45-.11,3.51-3.63,3.29-1.19-.07-1.6-.53-1.58-1.67,0-2.29.09-4.58,0-6.87-.09-2.13,1.35-1.8,2.62-1.79s2.76-.37,2.61,1.78C399.24,61.84,399.3,63,399.3,64.13Zm-4-3.93c0,2.28-.08,4.47.07,6.64,0,.45.87,1.06,1.41,1.16.33.06,1.15-.71,1.17-1.13.12-2.18.06-4.37.06-6.67Z"/><path class="cls-1" d="M287.28,363.42h1.84c3.37,0,3.78.41,3.2,3.66a2,2,0,0,1-1.4,1.28c-2.45.13-4.91,0-7.37.07-2.1,0-1.43-1.57-1.49-2.65s-.37-2.46,1.54-2.36C284.82,363.47,286.05,363.42,287.28,363.42Zm-3.73,1.24c-.67,1.88-.21,2.7,1.79,2.57,1.82-.11,3.66,0,5.67,0v-2.55Z"/><path class="cls-1" d="M160.66,486.36c.1-1.8.2-3.6.31-5.67,3.08,0,6-.07,8.87,0,2,.07,1.2,1.76,1.31,2.81s.27,2.26-1.45,2.24c-2.22,0-4.45-.05-6.67,0a13.67,13.67,0,0,0-2.42.49A.56.56,0,0,0,160.66,486.36Zm9.27-4.27H162l.11,2.33h7.78Z"/><path class="cls-1" d="M279,485.75c-3.11,0-6,0-8.89,0-2,0-1.28-1.56-1.29-2.54s-.61-2.5,1.33-2.51c2.22,0,4.44.1,6.65,0,1.68-.11,2.45.48,2.38,2.14C279.14,483.76,279.06,484.72,279,485.75Zm-1.17-3.67h-7.7v2.35h7.7Z"/><path class="cls-1" d="M152.84,363.42a21.34,21.34,0,0,0,2.53,0c2.08-.29,2.58.62,2.57,2.59s-.62,2.59-2.52,2.46a58.09,58.09,0,0,0-6.19,0c-2,.08-1.67-1.33-1.64-2.5s-.52-2.64,1.58-2.52C150.39,363.47,151.62,363.42,152.84,363.42Zm3.62,1.14c-2.09,0-4.15-.1-6.18.06-.54,0-1,.85-1.54,1.31.55.43,1.06,1.15,1.66,1.22,1.42.18,2.89,0,4.34.07C156.53,367.32,157.13,366.6,156.46,364.56Z"/><path class="cls-1" d="M45.84,64.1a21,21,0,0,0,0,2.75c.25,2-.66,2.39-2.48,2.44-2.12.06-2.88-.59-2.69-2.72a53.66,53.66,0,0,0,0-5.95c-.07-2.17,1.5-1.65,2.71-1.7s2.55-.18,2.42,1.75C45.77,61.81,45.84,63,45.84,64.1Zm-1.31,3.71V60.07L42,60.19c0,2,.11,3.9,0,5.78C41.76,68.17,42.71,68.47,44.53,67.81Z"/><path class="cls-1" d="M240.73,186.09c1.25,1.7,2.51,1.88,3.78.08l.37.56c-.69.7-1.48,2.06-2,2-.94-.15-1.73-1.23-2.59-1.91Z"/><path class="cls-1" d="M257.67,159.5c-1.41-1.4-2.77-1.49-4.17.27C255.4,156.14,255.91,156.13,257.67,159.5Z"/><text class="cls-2" transform="translate(315.97 174.55)">71.95 м²</text><text class="cls-2" transform="translate(74.22 174.55)">71.95 м²</text><text class="cls-2" transform="translate(74.29 247.92)">71.<tspan class="cls-3" x="17.53" y="0">0</tspan><tspan x="26.76" y="0">7 м²</tspan></text><text class="cls-4" transform="translate(308.96 245.92)">71.<tspan class="cls-5" x="16.64" y="0">0</tspan><tspan class="cls-6" x="25.4" y="0">7 м²</tspan></text><text class="cls-2" transform="translate(338.87 95.89)">120.53 м²</text><text class="cls-2" transform="translate(104.61 312.79)">120.90 м²</text><text class="cls-2" transform="translate(150.64 437.89)">82.<tspan class="cls-7" x="21.65" y="0">0</tspan><tspan x="30.9" y="0">2 м²</tspan></text><text class="cls-2" transform="translate(228.01 437.89)">82.<tspan class="cls-7" x="21.65" y="0">0</tspan><tspan x="30.9" y="0">2 м²</tspan></text><text class="cls-2" transform="translate(255.86 312.79)">120.90 м²</text><text class="cls-2" transform="translate(19.52 95.89)">120.53 м²</text><text class="cls-2" transform="translate(253.01 92.63)">62<tspan class="cls-8" x="17.64" y="0">.</tspan><tspan x="20.98" y="0">46 м²</tspan></text><text class="cls-2" transform="translate(124.34 92.63)">62<tspan class="cls-8" x="17.64" y="0">.</tspan><tspan x="20.98" y="0">46 м²</tspan></text></g></g></svg>